# xmcd CD database file
#
# Track frame offsets:
#	150
#	35590
#	94212
#	138180
#	181360
#
# Disc length: 2966 seconds
#
# Revision: 0
# Processed by: cddbd v1.5.1PL2 Copyright (c) Steve Scherf et al.
# Submitted via: CDex 1.51
#
DISCID=3d0b9405
DTITLE=Adåker, Ulf - Chordeography
DYEAR=1987
DGENRE=Jazz
TTITLE0=Chordeography
TTITLE1=Bonestructure No. 2
TTITLE2=Volcano
TTITLE3=Nuits-Saint-Georges
TTITLE4=42nd St. Heart Beat
EXTD=YEAR: 1987
EXTT0=
EXTT1=
EXTT2=
EXTT3=
EXTT4=
PLAYORDER=
